<svg xmlns="http://www.w3.org/2000/svg" width="491" height="501" viewBox="0 0 491 501" style="background:#fff">
  <defs>
    <radialGradient id="a" cx="51.826%" cy="49.718%" r="73.096%" fx="51.826%" fy="49.718%">
      <stop stop-color="#ED1E79" offset="0%"/>
      <stop stop-color="#B72483" offset="15.95%"/>
      <stop stop-color="#8B298A" offset="30.92%"/>
      <stop stop-color="#702C8F" offset="42.52%"/>
      <stop stop-color="#662D91" offset="49.33%"/>
      <stop stop-color="#6263AD" offset="61.76%"/>
      <stop stop-color="#59EAF4" offset="90.17%"/>
      <stop stop-color="#58FFFF" offset="94.46%"/>
    </radialGradient>
    <radialGradient id="b" cx="50.29%" cy="49.987%" r="71.131%" fx="50.29%" fy="49.987%">
      <stop stop-color="#ED1E79" offset="0%"/>
      <stop stop-color="#B72483" offset="15.95%"/>
      <stop stop-color="#8B298A" offset="30.92%"/>
      <stop stop-color="#702C8F" offset="42.52%"/>
      <stop stop-color="#662D91" offset="49.33%"/>
      <stop stop-color="#6263AD" offset="61.76%"/>
      <stop stop-color="#59EAF4" offset="90.17%"/>
      <stop stop-color="#58FFFF" offset="94.46%"/>
    </radialGradient>
  </defs>
  <g fill="none" fill-rule="evenodd" transform="translate(73 30)">
    <path fill="url(#a)" d="M8.5,304.1 L8.7,304.1 L10.4,337.9 C6.7,338.6 3.8,341.7 3.6,345.7 C3.3,350.3 6.9,354.3 11.5,354.5 C13.4,354.6 15.1,354.1 16.6,353.1 L35.1,375 C34.4,375.8 33.9,376.9 33.8,378.1 C33.6,380.9 35.8,383.2 38.5,383.4 C40.8,383.5 42.8,382.1 43.5,380 L67.4,384.6 L67.4,385 C67.1,389.6 70.7,393.6 75.3,393.8 C79.9,394.1 83.9,390.5 84.1,385.9 L84.1,384.6 L112.7,379.4 C113.5,382.9 116.6,385.6 120.4,385.8 C125,386.1 129,382.5 129.2,377.9 C129.2,377.4 129.2,376.9 129.1,376.4 L150.2,372.5 C150.8,374.4 152.5,375.8 154.7,375.9 C156.9,376 158.8,374.7 159.6,372.9 L179.3,378.3 C179.2,378.7 179.2,379 179.2,379.4 C178.9,384 182.5,388 187.1,388.2 C190.8,388.4 194.1,386.2 195.4,382.9 L235.5,395.1 C235.4,395.5 235.3,396 235.3,396.4 C235,401 238.6,405 243.2,405.2 C247.8,405.5 251.8,401.9 252,397.3 C252,396.8 252,396.2 251.9,395.7 L274.1,390.9 C274.8,392.7 276.5,394 278.5,394.1 C281.3,394.3 283.6,392.1 283.8,389.4 C283.9,388.1 283.4,386.8 282.6,385.9 L296.5,369 C297.6,369.7 298.9,370.1 300.3,370.2 C304.9,370.5 308.9,366.9 309.1,362.3 C309.3,358.6 307.1,355.4 303.9,354.1 L312,319.2 C312.3,319.2 312.5,319.3 312.8,319.3 C317.4,319.6 321.4,316 321.6,311.4 C321.9,306.8 318.3,302.8 313.7,302.6 L312.7,302.6 L306.7,259.5 C310.3,258.7 313,255.6 313.3,251.8 C313.6,247.2 310,243.2 305.4,243 C304.5,243 303.7,243 302.9,243.2 L290.5,207.3 C293.3,206.1 295.4,203.4 295.6,200.1 C295.8,196.1 293.3,192.7 289.6,191.6 L297,156 C297.2,156 297.4,156.1 297.6,156.1 C302.2,156.4 306.2,152.8 306.4,148.2 C306.7,143.6 303.1,139.6 298.5,139.4 L297.7,139.4 L293.2,100.1 C296.9,99.4 299.7,96.3 299.9,92.4 C300.2,87.8 296.6,83.8 292,83.6 C291.4,83.6 290.8,83.6 290.2,83.7 L283.8,57.6 C287,56.5 289.3,53.7 289.5,50.1 C289.8,45.5 286.2,41.5 281.6,41.3 C280.3,41.2 279,41.5 277.8,42 L267.7,22.9 C268.6,22 269.2,20.8 269.3,19.5 C269.5,16.7 267.3,14.4 264.6,14.2 C262.6,14.1 260.8,15.2 260,16.8 L246.8,12.9 C246.8,10.3 244.8,8.1 242.1,7.9 C239.3,7.7 237,9.9 236.8,12.6 C236.7,14.2 237.4,15.6 238.4,16.6 L234,27.4 C233.7,27.3 233.4,27.3 233,27.2 C230.2,27 227.9,29.2 227.7,31.9 C227.5,34.6 229.6,37 232.3,37.2 L233.7,59.2 C229.8,59.8 226.8,63 226.5,67 C226.3,71.1 229.1,74.7 233,75.6 L229.5,99.1 C226.8,99.1 224.6,101.1 224.4,103.8 C224.3,105.9 225.4,107.7 227.2,108.6 L219.2,132.4 C218.7,132.3 218.2,132.2 217.7,132.2 C213.1,131.9 209.1,135.5 208.9,140.1 C208.8,142.2 209.4,144.1 210.6,145.6 L186.7,166.9 C185.9,166.2 184.9,165.8 183.8,165.7 C181.2,165.6 179,167.4 178.6,169.9 L159.2,169.6 C159,167.1 157.1,165.1 154.5,164.9 C153.4,164.8 152.3,165.2 151.5,165.7 L139.4,150.9 C140.9,149.5 141.8,147.5 142,145.3 C142.3,140.7 138.7,136.7 134.1,136.5 C132.9,136.4 131.8,136.6 130.8,137 L121.5,116.4 C122.8,115.6 123.8,114.1 123.8,112.4 C124,109.6 121.8,107.3 119.1,107.1 L118.8,107.1 L114.7,75.7 C118.3,74.9 121.1,71.8 121.3,68 C121.5,64 118.9,60.5 115.1,59.5 L120.3,32.1 C122.9,32 125,30 125.2,27.4 C125.4,24.6 123.2,22.3 120.5,22.1 L120,22.1 L117.2,10.9 C118.6,10.1 119.5,8.6 119.6,6.9 C119.8,4.1 117.6,1.8 114.9,1.6 C112.4,1.5 110.2,3.2 109.7,5.6 L100,6 C99.3,4.2 97.6,2.8 95.6,2.7 C92.8,2.5 90.5,4.7 90.3,7.4 C90.2,8.4 90.5,9.3 90.9,10.1 L81.4,20.8 C80.3,20.2 79,19.8 77.7,19.7 C73.1,19.4 69.1,23 68.9,27.6 C68.7,30.6 70.2,33.4 72.5,35 L62.2,60 C61.7,59.9 61.2,59.8 60.7,59.8 C56.1,59.5 52.1,63.1 51.9,67.7 C51.7,71.4 53.9,74.7 57.2,76 L48.1,120 C47.9,120 47.7,120 47.5,119.9 C42.9,119.6 38.9,123.2 38.7,127.8 C38.4,132.4 41.9,136.3 46.4,136.6 L46.5,176.9 C42.4,177.2 39.1,180.5 38.8,184.8 C38.6,188 40.3,191 42.9,192.5 L24.4,230.9 C23.6,230.6 22.7,230.4 21.9,230.3 C17.3,230 13.3,233.6 13.1,238.2 C12.9,242.1 15.4,245.5 19,246.7 L9.7,287.6 C9.5,287.6 9.2,287.5 9,287.5 C4.4,287.2 0.4,290.8 0.2,295.4 C0.3,299.8 3.9,303.8 8.5,304.1 Z M10,304 C13.9,303.5 17,300.3 17.3,296.2 L17.3,295.4 L35.4,293.2 C35.8,295.4 37,297.4 38.8,298.6 L15.6,338.5 C14.6,338 13.6,337.7 12.4,337.7 L11.7,337.7 L10,304 Z M67.9,63.7 L94.3,47.4 C94.8,48 95.4,48.5 96.1,48.8 L85.3,85.7 C84.9,85.6 84.5,85.6 84.1,85.5 C82,85.4 80,86.1 78.5,87.3 L66.5,74.3 C68.1,72.9 69.1,70.9 69.2,68.6 C69.2,66.8 68.8,65.1 67.9,63.7 Z M105,67.1 C104.9,69.2 105.5,71.1 106.7,72.6 L89.4,87.9 C88.6,87.1 87.7,86.5 86.6,86.1 L97.4,49.2 C97.6,49.2 97.7,49.3 97.9,49.3 C98.8,49.3 99.6,49.2 100.3,48.8 L108.2,61 C106.4,62.3 105.2,64.5 105,67.1 Z M115.3,115.3 L94.3,137.9 C93,136.9 91.4,136.2 89.6,136.1 L88.7,136.1 L85.1,102.2 C87.4,101.8 89.5,100.4 90.7,98.4 L114.5,110.6 C114.3,111 114.2,111.5 114.2,112 C114.1,113.2 114.6,114.4 115.3,115.3 Z M125.6,145.5 C125.8,148.6 127.7,151.2 130.5,152.5 L121.6,177 C120.5,176.7 119.4,176.5 118.3,176.4 C115.6,176.2 113,176.9 110.7,178.2 L93.9,151.4 C95.9,150.1 97.2,147.9 97.5,145.4 L125.6,145.5 Z M234.8,104.3 L234.8,103.7 L257.1,99.1 C258,102 260.4,104.3 263.5,105 L259.5,139.6 C257.9,139.5 256.4,139.9 255.1,140.7 L233.1,107.9 C234.1,106.9 234.8,105.7 234.8,104.3 Z M241.1,61.3 L249.9,50.5 C250.6,50.9 251.4,51.2 252.2,51.2 L253,51.2 L262.5,88.7 C261.5,89 260.5,89.6 259.7,90.3 L241.8,72.6 C242.9,71.3 243.5,69.6 243.6,67.8 C243.8,65.3 242.8,62.9 241.1,61.3 Z M272.9,49.3 C272.8,52.8 274.9,55.9 277.9,57.2 L267.2,88.5 C266.7,88.4 266.2,88.3 265.6,88.3 C265,88.3 264.3,88.3 263.7,88.4 L254.2,50.9 C255.7,50.3 256.8,49.1 257.2,47.5 L272.9,49.3 Z M283.6,207.4 L274,233 C273.4,232.8 272.8,232.7 272.2,232.7 L271.5,232.7 L266.4,189.1 C267.3,188.9 268.2,188.4 268.8,187.7 L279.9,195.5 C279.2,196.6 278.8,197.9 278.7,199.3 C278.6,202.8 280.6,205.9 283.6,207.4 Z M299.8,258.1 L281.4,286 C279.5,284.9 277.4,284.2 275.1,284.1 L274.4,284.1 L272.9,249.4 C275.9,249 278.5,247 279.6,244.2 L296.8,249.7 C296.7,250.2 296.6,250.6 296.6,251.1 C296.4,253.9 297.7,256.5 299.8,258.1 Z M306,315.2 C296.2,321.9 278.5,333.9 268.7,340.6 C267.7,339.4 266.4,338.4 264.9,337.9 L271.6,311.5 C272.2,311.6 272.9,311.7 273.6,311.8 C279.7,312.1 285.2,308.4 287.3,303 L305.1,309 C305,309.5 304.9,310 304.9,310.6 C304.8,312.3 305.2,313.9 306,315.2 Z M244,388.6 C242.3,388.5 240.8,388.9 239.4,389.7 L224.6,367.8 C226.4,366.4 227.6,364.2 227.7,361.7 C227.8,360.8 227.6,359.9 227.4,359 L254.4,349.2 C255.2,351.1 256.7,352.6 258.6,353.5 L245.7,388.9 C245.2,388.7 244.6,388.6 244,388.6 Z M126.3,371.1 C124.9,369.9 123.2,369.2 121.3,369.1 C119.6,369 118,369.4 116.7,370.2 L108.6,358.8 C110.2,357.4 111.2,355.3 111.4,353 L111.4,352.5 L146.8,349.3 C147,349.9 147.2,350.5 147.6,351.1 L126.3,371.1 Z M76.2,377.1 C74.8,377 73.4,377.3 72.2,377.9 L58.2,353.3 C60,352.1 61.3,350.2 61.7,348 L94.6,351.9 L94.6,352.2 C94.5,354.6 95.4,356.9 97,358.5 L80.5,378.6 C79.3,377.7 77.8,377.2 76.2,377.1 Z M39.1,373.4 C38,373.3 37,373.6 36.1,374.2 L17.6,352.3 C19.1,350.9 20.1,349 20.3,346.9 L45.2,347 C45.4,349.8 47,352.2 49.2,353.6 L40.2,373.6 C39.8,373.5 39.5,373.4 39.1,373.4 Z M55.1,131.8 L81.1,142 C80.9,142.6 80.8,143.3 80.7,143.9 C80.5,146.9 82,149.7 84.3,151.3 L74,170.1 C73.5,169.9 73,169.8 72.5,169.8 C71.8,169.8 71.1,169.9 70.5,170.1 L52,135.2 C53.4,134.4 54.4,133.2 55.1,131.8 Z M179.5,204.5 C178.4,205.5 177.5,206.8 177,208.3 L157.6,203.9 L157.6,203.7 C157.7,201.2 156,199 153.6,198.5 L154.9,174.7 C155.6,174.6 156.3,174.4 156.9,174.1 L179.5,204.5 Z M188.6,172.2 L201,174.5 L201,174.9 C200.8,177.7 202.1,180.2 204.1,181.9 L189.2,203.5 C188.1,202.9 186.9,202.5 185.5,202.4 L185.5,202.4 L184.7,175.5 C186.5,175.2 188,173.9 188.6,172.2 Z M197.2,339 C199.2,336.8 200.4,333.9 200.6,330.7 L200.6,329.1 L229.4,326.1 C229.7,327.4 230.6,328.6 231.8,329.2 L222.1,353.2 C221.5,353 220.8,352.9 220.1,352.8 C217.8,352.7 215.7,353.5 214.1,354.9 L197.2,339 Z M61.9,346.7 C62,345 61.5,343.4 60.7,342 L81.2,328.2 C82.1,329.2 83.3,329.8 84.6,329.9 C85.5,329.9 86.3,329.8 87,329.4 L97.9,346 C96.5,347.1 95.4,348.7 94.9,350.5 L61.9,346.7 Z M80.9,292 C81.1,297.8 84.8,302.8 90.1,304.7 L85.5,319.9 C85.3,319.9 85.2,319.8 85,319.8 C83.6,319.7 82.3,320.3 81.3,321.2 L50.6,296.3 C51.4,295.1 51.8,293.7 51.9,292.3 L51.9,292.2 L80.9,292 Z M61.5,256.6 L98.6,248.8 C99.4,251.4 101.3,253.4 103.9,254.3 L97.7,278.1 C97,278 96.3,277.8 95.6,277.8 C91.6,277.6 87.9,279.1 85.2,281.7 L60.7,259.8 C61.2,259.1 61.5,258.2 61.6,257.3 C61.5,257 61.5,256.8 61.5,256.6 Z M79.6,217 L106.4,198.6 C108.3,201.1 111,202.9 114.2,203.7 L107.6,238 L107.1,238 C104.1,237.8 101.4,239.3 99.8,241.5 L80.4,230.1 C81.1,228.6 81.6,226.9 81.7,225.1 C81.8,222.2 81.1,219.4 79.6,217 Z M208.8,183.8 C210.8,183.9 212.7,183.3 214.2,182.2 L225.4,195.2 C223,197.5 221.4,200.8 221.2,204.4 L221.2,206.2 L193.2,209.2 C192.8,207.2 191.8,205.5 190.3,204.3 L205.2,182.7 C206.2,183.3 207.5,183.7 208.8,183.8 Z M86.9,320.3 L91.5,305.1 C92.3,305.3 93.2,305.4 94.1,305.5 C99,305.8 103.5,303.5 106.2,299.7 L130.5,315.4 C129.9,316.4 129.6,317.6 129.5,318.9 L129.5,319.5 C118.3,320.6 98.9,322.7 89.8,323.6 C89.3,322.2 88.3,321 86.9,320.3 Z M179.1,216.7 C180.5,218.1 182.4,219 184.5,219.1 C186,219.2 187.4,218.9 188.7,218.2 L200.2,237.3 C197.2,239.3 195,242.4 194.3,246.2 L159,240.9 L159,240.8 C159.1,238.8 158.5,236.8 157.3,235.3 L179.1,216.7 Z M227.3,216.7 L214.7,236.9 C212.9,235.9 210.9,235.3 208.7,235.1 C206.1,235 203.5,235.6 201.4,236.7 L189.9,217.6 C191.9,216.2 193.2,213.9 193.4,211.3 L193.4,210.6 L221.5,207.6 C222.1,211.3 224.2,214.6 227.3,216.7 Z M236.6,267 L219,291.2 C217.9,290.5 216.5,290.1 215.1,290 L214.2,290 L210.5,262.6 C214.8,261.8 218.4,259.1 220.3,255.3 L235.2,262 C235.1,262.3 235.1,262.7 235,263 C234.9,264.6 235.5,266.1 236.6,267 Z M107.4,285.8 L127.9,275.1 C128.8,276.3 130.1,277.1 131.7,277.2 L131.9,277.2 C133.4,288.8 135.1,302.6 136.1,311.2 C134.1,311.6 132.3,312.7 131,314.3 L106.7,298.6 C107.8,296.8 108.4,294.7 108.6,292.4 C108.8,290.1 108.4,287.8 107.4,285.8 Z M197,257.7 L178.8,273.9 C177.4,272.4 175.4,271.4 173.2,271.3 C171.8,271.2 170.4,271.5 169.2,272.1 L155.2,247.5 C157,246.3 158.2,244.5 158.7,242.4 L194,247.7 C194,247.9 193.9,248.1 193.9,248.3 C193.8,251.8 195,255.1 197,257.7 Z M150.1,248.8 C151.5,248.9 152.8,248.6 154,248.1 L168,272.7 C166.4,273.8 165.1,275.5 164.6,277.5 L137,272.5 C137.1,270.8 136.3,269.3 135.1,268.3 L146.9,248 C147.8,248.5 148.9,248.8 150.1,248.8 Z M138.2,311.1 L137.5,311.1 C136.4,301.4 134.4,285.7 133.3,277 C134.9,276.6 136.2,275.3 136.7,273.7 L164.4,278.7 L164.4,279.1 C164.3,281.5 165.2,283.8 166.8,285.4 L142.8,312.7 C141.5,311.8 139.9,311.2 138.2,311.1 Z M179.7,275 L198,258.8 C200.3,261.2 203.5,262.8 207.1,263 L209.1,263 L212.8,290.4 C210.4,290.9 208.4,292.4 207.3,294.5 L180.7,282.5 C180.9,281.8 181.1,281.1 181.1,280.3 C181.2,278.2 180.7,276.4 179.7,275 Z M145.7,247.3 L133.9,267.6 C133.4,267.4 132.9,267.2 132.3,267.2 C131.1,267.1 129.9,267.5 129,268.2 L112.9,251.9 C114.1,250.5 114.9,248.8 115,246.8 L115,246 L142.4,242.2 C142.9,244.3 144,246.1 145.7,247.3 Z M106.2,254.7 C108.4,254.8 110.4,254.1 112,252.8 L128.1,269.1 C127.5,269.9 127.1,270.8 127.1,271.9 C127.1,272.6 127.2,273.3 127.4,273.9 L106.9,284.6 C105.2,281.7 102.4,279.4 99.1,278.4 L105.3,254.6 C105.5,254.7 105.8,254.7 106.2,254.7 Z M143.8,313.6 L167.8,286.3 C169.1,287.3 170.6,287.9 172.3,287.9 C173,287.9 173.7,287.9 174.4,287.8 L182.4,316.6 C178,318.1 174.5,321.7 173.3,326.2 L146.1,320.4 C146.1,320.2 146.2,320 146.2,319.8 C146.3,317.5 145.3,315.3 143.8,313.6 Z M187.5,316 C186.2,315.9 184.9,316.1 183.7,316.3 L175.7,287.5 C177.7,286.8 179.3,285.4 180.2,283.5 L206.8,295.5 C206.5,296.2 206.4,297 206.3,297.9 C206.2,300.3 207.1,302.5 208.6,304.2 L195.4,319 C193.2,317.3 190.5,316.1 187.5,316 Z M196.4,319.9 L209.6,305.1 C210.9,306.1 212.4,306.7 214.2,306.8 C216,306.9 217.7,306.4 219.1,305.5 L230.8,321.3 C229.9,322.1 229.4,323.3 229.3,324.6 L229.3,324.7 L200.5,327.7 C200,324.7 198.5,322 196.4,319.9 Z M234.5,319.9 C233.5,319.8 232.6,320.1 231.9,320.5 L220.2,304.7 C221.8,303.3 222.9,301.3 223,299 L260.5,298.7 C260.6,301 261.3,303.3 262.5,305.2 L237.9,321.6 C237.1,320.6 235.9,320 234.5,319.9 Z M260.5,297.4 L223,297.7 C222.8,295.5 221.7,293.5 220.1,292.1 L237.7,267.9 C238.3,268.2 239,268.4 239.7,268.5 C240.9,268.6 242.1,268.2 243,267.5 L264.1,288.7 C262,291 260.7,294 260.5,297.3 C260.5,297.2 260.5,297.3 260.5,297.4 Z M243.6,260 C242.8,259.1 241.6,258.5 240.2,258.4 C238.3,258.3 236.5,259.3 235.6,260.9 L220.7,254.2 C221.2,252.8 221.6,251.4 221.7,249.9 L221.7,248.1 L263.6,242.8 C263.8,243.7 264.1,244.6 264.6,245.4 L243.6,260 Z M221.5,246.6 C220.9,242.9 218.7,239.7 215.7,237.6 L228.3,217.4 C230.1,218.4 232.1,219 234.2,219.1 C238.1,219.3 241.7,217.9 244.4,215.5 L265.3,235.7 C264.2,237 263.5,238.7 263.3,240.6 L263.3,241.4 L221.5,246.6 Z M178.2,215.7 L156.4,234.4 C155.1,233.2 153.5,232.3 151.6,232.1 L153,208.4 C155,208.3 156.6,207 157.3,205.2 L176.7,209.6 C176.7,209.8 176.6,210.1 176.6,210.3 C176.5,212.3 177.1,214.2 178.2,215.7 Z M151.7,208.3 L150.3,232.1 C148.9,232.2 147.6,232.5 146.5,233.2 L125.6,201.5 C127.6,200.1 129.2,198.1 130.2,195.8 L147.8,202.4 C147.7,202.7 147.7,202.9 147.7,203.2 C147.5,205.7 149.3,207.9 151.7,208.3 Z M145.3,233.9 C143.5,235.3 142.3,237.5 142.2,240 L142.2,240.9 L114.8,244.7 C114.2,241.6 111.9,239.1 108.9,238.3 L115.5,204 C115.9,204.1 116.3,204.1 116.7,204.1 C119.5,204.3 122.2,203.5 124.5,202.2 L145.3,233.9 Z M49.9,297.4 L80.6,322.3 C80.2,323 79.9,323.8 79.9,324.6 C79.8,325.5 80.1,326.3 80.4,327.1 L59.9,340.9 C58.5,339.2 56.4,338.1 54,338 L52.7,338 L45.7,300 C47.3,299.6 48.8,298.7 49.9,297.4 Z M103.5,344.2 C101.9,344.1 100.3,344.5 99,345.2 L88.1,328.6 C89.1,327.7 89.7,326.5 89.8,325.1 L89.8,325 C102.3,323.7 119.4,321.9 129.5,320.9 C129.7,322.3 130.4,323.6 131.2,324.7 L108.5,346.3 C107.2,345.1 105.4,344.3 103.5,344.2 Z M109.5,347.3 L132.2,325.7 C133.6,326.9 135.3,327.7 137.3,327.8 C138.5,327.9 139.7,327.7 140.8,327.3 L148.9,344.1 C147.6,344.9 146.7,346.3 146.7,348 C146.7,348 146.7,348 146.7,348.1 L111.4,351.3 C111,349.7 110.4,348.4 109.5,347.3 Z M151.8,343.2 C151.2,343.2 150.6,343.3 150,343.4 L141.9,326.6 C143.7,325.5 145.1,323.8 145.7,321.8 L172.9,327.6 C172.8,328.1 172.8,328.6 172.7,329 C172.6,331.4 173,333.6 174,335.6 L155.5,345.2 C154.8,344.1 153.4,343.3 151.8,343.2 Z M223.2,353.7 L232.9,329.7 C233.2,329.8 233.5,329.8 233.9,329.8 C235.4,329.9 236.8,329.3 237.8,328.3 L255.1,341.3 C254.4,342.5 253.9,343.8 253.8,345.3 C253.8,346.2 253.8,347 254,347.8 L227,357.6 C226.3,356 224.9,354.6 223.2,353.7 Z M262.6,337.5 C259.9,337.4 257.5,338.5 255.9,340.3 L238.6,327.3 C238.9,326.7 239.2,326 239.2,325.2 C239.3,324.3 239,323.5 238.7,322.7 L263.3,306.3 C265,308.6 267.5,310.3 270.3,311.2 L263.6,337.6 C263.3,337.5 263,337.5 262.6,337.5 Z M265,287.6 L243.9,266.4 C244.5,265.6 244.9,264.7 244.9,263.6 C245,262.7 244.7,261.8 244.3,261 L265.3,246.2 C266.7,248 268.9,249.1 271.3,249.3 L271.5,249.3 L273,284 C270,284.4 267.2,285.7 265,287.6 Z M266.3,234.7 L245.4,214.5 C247.4,212.2 248.8,209.3 248.9,206 C249.1,203.1 248.3,200.3 246.9,197.9 L261.5,187.7 C262.3,188.6 263.5,189.2 264.9,189.3 L265.1,189.3 L270.2,232.9 C268.8,233.1 267.4,233.7 266.3,234.7 Z M260.2,184 C260.1,184.9 260.4,185.8 260.8,186.6 L246.2,196.8 C244.9,195.1 243.2,193.6 241.1,192.7 L256.7,155.8 C257.4,156 258.1,156.2 258.8,156.2 L260,156.2 L263.7,179.5 C261.8,180.1 260.3,181.8 260.2,184 Z M255.4,155.2 L239.8,192.1 C238.5,191.6 237.2,191.4 235.8,191.3 C232.3,191.1 229,192.3 226.4,194.3 L215.2,181.3 C216.6,179.9 217.5,178 217.6,175.9 C217.7,174.5 217.4,173.2 216.9,172 L252.3,152.4 C253.1,153.6 254.2,154.6 255.4,155.2 Z M153.6,174.7 L152.3,198.5 C150.6,198.6 149.1,199.6 148.3,201.1 L130.7,194.5 C131.1,193.4 131.3,192.2 131.4,191 C131.5,188.5 131,186.2 130,184.1 L150.7,172.8 C151.3,173.8 152.4,174.5 153.6,174.7 Z M104.5,185.1 L77.2,175.7 C77.2,175.5 77.3,175.3 77.3,175 C77.4,173.3 76.6,171.7 75.3,170.7 L85.6,151.9 C86.5,152.4 87.6,152.6 88.7,152.7 C90.1,152.8 91.5,152.5 92.7,151.9 L109.5,178.7 C107.3,180.4 105.5,182.5 104.5,185.1 Z M72.5,179.7 C74.3,179.6 75.9,178.6 76.7,177 L104,186.4 C103.7,187.4 103.5,188.4 103.5,189.5 C103.3,192.5 104.1,195.2 105.6,197.6 L78.8,216 C76.6,213.2 73.4,211.2 69.6,210.7 L72.5,179.7 Z M67,238.2 C72.4,238.5 77.2,235.7 79.8,231.3 L99.1,242.7 C98.6,243.7 98.3,244.7 98.3,245.9 C98.3,246.4 98.3,246.9 98.4,247.4 L61.3,255.2 C60.9,254 60,253 58.8,252.4 L63.8,237.5 C64.8,237.9 65.9,238.1 67,238.2 Z M56.2,261.9 C57.5,262 58.8,261.5 59.7,260.7 L84.2,282.6 C82.3,284.8 81.1,287.6 80.9,290.6 L51.9,290.7 C51.5,287.7 49.6,285.2 46.9,284 L55.3,261.7 C55.7,261.9 55.9,261.9 56.2,261.9 Z M43.2,300.2 L44.3,300.2 L51.3,338.3 C48,339.2 45.4,342.1 45.1,345.7 L20.2,345.6 C20,343 18.7,340.8 16.6,339.4 L39.8,299.5 C40.9,299.8 42,300.1 43.2,300.2 Z M156.3,346.5 L174.7,336.9 C177,340.8 181.1,343.5 185.9,343.7 L186.2,343.7 L186.6,371.5 C184.7,371.7 182.9,372.5 181.6,373.8 L155.7,351 C156.2,350.3 156.5,349.4 156.5,348.5 C156.6,347.8 156.5,347.1 156.3,346.5 Z M188,371.5 L187.6,343.7 C190.9,343.5 194,342.1 196.3,339.9 L213,355.9 C211.9,357.2 211.2,358.9 211.1,360.7 C211,362.2 211.3,363.6 211.9,364.8 L194.3,375.1 C192.9,373.1 190.6,371.7 188,371.5 Z M268.1,180.2 C267.4,179.7 266.5,179.4 265.5,179.3 L265.1,179.3 L261.4,155.9 C264.8,155 267.4,152.1 267.7,148.4 L289.8,148.3 C290,150.4 290.9,152.3 292.4,153.6 L268.1,180.2 Z M289.7,147.1 L267.7,147.2 C267.4,143.5 264.6,140.4 261,139.7 L265,105.1 C266.6,105.2 268,104.8 269.3,104.1 L293.5,140.8 C291.3,142.1 289.9,144.4 289.7,147.1 Z M251.7,151.3 L216.3,170.9 C215.3,169.4 213.7,168.2 211.9,167.6 L216.4,148.8 C216.7,148.8 216.9,148.9 217.2,148.9 C221.3,149.1 224.8,146.4 225.8,142.7 L251,147 L251,147.3 C250.9,148.7 251.1,150.1 251.7,151.3 Z M215,148.4 L210.5,167.2 C210.2,167.2 210,167.1 209.7,167.1 C205.7,166.9 202.2,169.5 201.2,173.2 L188.8,170.9 C188.9,169.8 188.5,168.7 187.9,167.9 L211.8,146.6 C212.8,147.3 213.8,148 215,148.4 Z M183.3,175.6 L184.1,202.5 C182.8,202.6 181.6,203.1 180.6,203.7 L158,173.4 C158.7,172.7 159.2,171.9 159.4,170.9 L178.9,171.2 C179.2,173.5 181,175.3 183.3,175.6 Z M149.9,171.6 L129.3,182.9 C127.8,180.4 125.5,178.5 122.8,177.4 L131.7,152.9 C132.3,153.1 132.8,153.2 133.4,153.2 C135.3,153.3 137.2,152.7 138.6,151.7 L150.7,166.6 C150,167.4 149.5,168.4 149.5,169.6 C149.5,170.3 149.7,171 149.9,171.6 Z M78,100.1 C79.4,101.3 81.1,102.1 83.1,102.2 L83.8,102.2 L87.4,136.2 C84.9,136.7 82.7,138.4 81.6,140.7 L55.6,130.5 C55.8,129.9 55.9,129.2 55.9,128.6 C56,126.4 55.3,124.4 54,122.9 L78,100.1 Z M50.9,135.8 L69.4,170.7 C68.2,171.6 67.4,172.9 67.3,174.5 C67.3,175 67.3,175.6 67.5,176.1 L55.1,181.3 C53.8,178.8 51.3,177 48.3,176.8 L48.2,136.5 C49.2,136.4 50.1,136.2 50.9,135.8 Z M56.1,185.6 C56.2,184.5 56,183.5 55.7,182.5 L68.1,177.3 C68.8,178.5 69.9,179.3 71.3,179.6 L68.5,210.4 C66.3,210.3 64.1,210.8 62.2,211.6 L52.2,192.1 C54.3,190.8 55.9,188.4 56.1,185.6 Z M62.5,237.2 L57.5,252.1 C57.3,252.1 57.1,252 56.8,252 C55,251.9 53.4,252.7 52.5,254.1 L29.6,241.9 C30,241 30.2,240.1 30.3,239 C30.3,238.2 30.3,237.4 30.1,236.6 L54.6,228.6 C55.8,232.5 58.7,235.6 62.5,237.2 Z M29,243.1 L51.9,255.3 C51.7,255.8 51.6,256.2 51.6,256.7 C51.5,258.7 52.6,260.5 54.2,261.4 L45.7,283.8 C45.2,283.7 44.7,283.6 44.2,283.6 C43.2,283.5 42.2,283.7 41.3,284 L25.7,246 C27,245.3 28.2,244.3 29,243.1 Z M43.8,378.6 C43.9,376.7 42.9,375 41.4,374.1 L50.4,354.1 C51.2,354.4 52.1,354.6 53,354.7 C54.4,354.8 55.8,354.5 57,353.9 L71,378.5 C69.4,379.6 68.2,381.3 67.6,383.2 L43.8,378.6 Z M83.8,383.2 C83.4,381.7 82.6,380.4 81.5,379.4 L98,359.3 C99.3,360.2 100.8,360.8 102.5,360.9 C104.3,361 106.1,360.5 107.5,359.6 L115.5,370.9 C113.7,372.3 112.5,374.5 112.4,376.9 L112.4,378 L83.8,383.2 Z M128.8,375.1 C128.5,374 127.9,373 127.2,372.1 L148.4,352.1 C149.2,352.7 150.2,353.1 151.2,353.2 L151.5,353.2 L153.5,366.2 C151.5,366.8 150,368.5 149.9,370.7 L149.9,371.2 L128.8,375.1 Z M159.9,371.6 C159.9,371.5 160,371.4 160,371.2 C160.2,368.4 158,366.1 155.3,365.9 L155,365.9 L153,352.9 C153.7,352.7 154.3,352.4 154.9,351.9 L180.8,374.8 C180.3,375.5 179.9,376.2 179.6,377 L159.9,371.6 Z M195.6,381.7 C195.7,381.3 195.8,380.8 195.8,380.4 C195.9,378.9 195.6,377.5 195,376.3 L212.6,366 C214,368 216.3,369.4 219,369.6 C220.7,369.7 222.2,369.3 223.6,368.5 L238.4,390.4 C237.3,391.3 236.4,392.5 235.8,393.9 L195.6,381.7 Z M251.5,394.6 C250.8,392.3 249.2,390.4 247,389.4 L259.9,354 C260.5,354.2 261,354.3 261.7,354.3 C262.7,354.4 263.6,354.2 264.5,354 L276.3,385.1 C274.8,385.9 273.8,387.4 273.7,389.2 L273.7,389.9 L251.5,394.6 Z M281.4,385.2 C280.7,384.7 279.8,384.4 278.9,384.4 C278.4,384.4 278,384.4 277.5,384.5 L265.7,353.4 C267.4,352.6 268.8,351.2 269.6,349.6 L292.7,359.4 C292.5,360.1 292.3,360.8 292.3,361.6 C292.1,364.3 293.3,366.8 295.3,368.5 L281.4,385.2 Z M302.6,353.8 C302.1,353.7 301.7,353.6 301.2,353.6 C297.8,353.4 294.8,355.3 293.3,358.1 L270.2,348.3 C270.4,347.7 270.5,347 270.6,346.3 C270.7,344.6 270.3,343 269.5,341.7 C279.3,335 297,323 306.8,316.3 C307.8,317.5 309.2,318.5 310.8,319 L302.6,353.8 Z M311.4,302.9 C308.8,303.5 306.6,305.3 305.5,307.8 L287.7,301.8 C288,300.8 288.2,299.8 288.2,298.8 C288.5,293.9 286.2,289.5 282.5,286.8 L300.8,258.9 C301.9,259.5 303.1,259.8 304.3,259.9 L305.3,259.9 L311.4,302.9 Z M301.6,243.8 C299.6,244.7 298,246.3 297.2,248.3 L280,242.8 C280.1,242.4 280.2,241.9 280.2,241.5 C280.4,238 278.4,234.8 275.4,233.4 L284.9,207.8 C285.5,208 286.1,208.1 286.7,208.1 C287.6,208.1 288.4,208.1 289.2,207.9 L301.6,243.8 Z M288.2,191.5 C288,191.5 287.8,191.4 287.6,191.4 C284.9,191.2 282.3,192.4 280.7,194.4 L269.6,186.6 C269.9,186 270.1,185.3 270.2,184.6 C270.3,183.3 269.8,182.1 269,181.1 L293.3,154.6 C294,155.1 294.8,155.5 295.6,155.7 L288.2,191.5 Z M296.4,139.5 C295.8,139.6 295.2,139.8 294.6,140.1 L270.3,103.3 C272.1,101.9 273.4,99.7 273.5,97.2 L273.5,95.9 L283.5,94.1 C284.4,97.5 287.4,100.1 291.1,100.3 L291.9,100.3 L296.4,139.5 Z M289,83.8 C285.8,84.8 283.5,87.7 283.3,91.3 L283.3,92.6 L273.3,94.4 C272.6,91.9 270.9,89.9 268.5,88.9 L279.2,57.6 C279.7,57.7 280.2,57.8 280.8,57.8 C281.4,57.8 282,57.8 282.6,57.7 L289,83.8 Z M273,47.9 L257.4,46.2 C257.4,44.5 256.4,42.9 255,42.1 L263.1,23.9 C263.5,24 263.8,24.1 264.2,24.1 C265.1,24.1 266,23.9 266.7,23.6 L276.7,42.6 C274.9,43.7 273.5,45.6 273,47.9 Z M261.9,23.2 L253.8,41.4 C253.4,41.3 253.1,41.2 252.7,41.2 C252.3,41.2 252,41.2 251.6,41.3 L244.1,17.2 C245.4,16.6 246.4,15.4 246.8,14 L259.6,17.8 C259.5,18.1 259.5,18.4 259.5,18.7 C259.4,20.6 260.4,22.3 261.9,23.2 Z M239.8,17.2 C240.4,17.5 241,17.7 241.7,17.7 C242.1,17.7 242.4,17.7 242.8,17.6 L250.3,41.7 C249.7,42 249.3,42.3 248.8,42.7 L237.3,34.3 C237.6,33.7 237.9,33 237.9,32.2 C238,30.3 237,28.5 235.4,27.6 L239.8,17.2 Z M234,36.9 C235,36.7 235.9,36.2 236.6,35.5 L248.1,43.9 C247.8,44.5 247.5,45.2 247.5,46 C247.4,47.4 247.9,48.7 248.8,49.7 L240,60.5 C238.8,59.7 237.3,59.1 235.7,59 L235.4,59 L234,36.9 Z M234.8,75.7 C237.1,75.8 239.3,75 240.9,73.6 L258.8,91.3 C257.7,92.6 256.9,94.3 256.8,96.2 C256.8,96.7 256.8,97.2 256.9,97.7 L234.6,102.3 C234.1,100.8 232.8,99.6 231.3,99.2 L234.8,75.7 L234.8,75.7 Z M228.9,108.9 C229.1,108.9 229.3,109 229.6,109 C230.5,109.1 231.3,108.8 232.1,108.5 L254.2,141.3 C252.8,142.4 251.8,143.9 251.3,145.7 L226.1,141.2 L226.1,140.9 C226.3,137.3 224.2,134.1 221,132.7 L228.9,108.9 Z M129.9,137.5 C127.5,138.8 125.8,141.2 125.6,144.1 L97.6,144 C97.5,142 96.7,140.1 95.4,138.7 L116.4,116.1 C117.1,116.6 118,117 119,117 C119.6,117 120.2,116.9 120.7,116.8 L129.9,137.5 Z M117.9,107.3 C116.8,107.6 115.8,108.3 115.1,109.2 L91.4,97 C91.8,96.2 92,95.2 92,94.3 C92.1,92.2 91.5,90.3 90.3,88.8 L107.6,73.5 C109,74.8 110.8,75.7 112.9,75.8 L113.8,75.8 L117.9,107.3 Z M113.8,59.2 C112.2,59.1 110.7,59.5 109.3,60.2 L101.4,48 C102.4,47.1 103,45.9 103.1,44.5 C103.2,43.5 102.9,42.5 102.4,41.7 L117,30.5 C117.6,31.2 118.4,31.6 119.3,31.9 L114.1,59.2 L113.8,59.2 Z M119.1,22.3 C117.2,22.9 115.8,24.6 115.6,26.8 C115.5,27.8 115.8,28.7 116.2,29.5 L101.6,40.7 C101.3,40.4 101.1,40.2 100.7,40 L113.6,11.4 C114,11.5 114.3,11.6 114.7,11.6 C115.2,11.6 115.8,11.5 116.3,11.4 L119.1,22.3 Z M110.2,7 C110.3,8.6 111.2,10.1 112.5,10.9 L99.6,39.5 C99.2,39.4 98.9,39.3 98.5,39.3 L98.5,39.3 L96.4,12.8 C98.8,12.6 100.7,10.6 100.9,8.1 L100.9,7.4 L110.2,7 Z M92.3,11.2 C93,11.9 93.9,12.4 95,12.6 L97.1,39.3 C96.2,39.5 95.4,39.9 94.7,40.6 L84.7,32.7 C85.5,31.5 86,30.1 86.1,28.5 C86.3,25.7 85,23.2 83,21.6 L92.3,11.2 Z M74.2,35.6 C75.1,36.1 76.2,36.3 77.3,36.4 C79.9,36.5 82.3,35.5 83.9,33.7 L93.9,41.6 C93.5,42.3 93.2,43 93.2,43.9 C93.2,44.7 93.3,45.5 93.6,46.2 L67.1,62.6 C66.3,61.6 65.2,60.8 64,60.3 L74.2,35.6 Z M59,76.2 C59.4,76.3 59.9,76.4 60.3,76.4 C62.1,76.5 63.9,76 65.3,75.1 L77.4,88.2 C76.1,89.6 75.3,91.4 75.2,93.4 C75.1,95.6 75.8,97.6 77.1,99.1 L53.2,121.9 C52.3,121.1 51.2,120.5 50,120.1 L59,76.2 Z M44.7,192.9 C45.5,193.2 46.3,193.4 47.2,193.5 C48.5,193.6 49.7,193.3 50.9,192.9 L60.9,212.4 C57,214.7 54.2,218.8 54,223.7 C53.9,225 54,226.2 54.3,227.4 L29.7,235.4 C29,233.7 27.8,232.3 26.2,231.4 L44.7,192.9 Z M20.7,246.8 C20.9,246.8 21.2,246.9 21.4,246.9 C22.5,247 23.5,246.8 24.4,246.5 L39.9,284.3 C37.3,285.6 35.4,288.2 35.2,291.4 L35.2,291.9 L17.1,294.1 C16.5,291.1 14.3,288.7 11.4,287.8 L20.7,246.8 Z" opacity=".15"/>
    <path fill="url(#b)" d="M22.5,317.9 L22.7,317.9 L26.5,352.6 C22.7,353.5 19.9,356.9 19.9,361 C19.9,365.8 23.8,369.6 28.5,369.6 C30.4,369.6 32.2,369 33.6,367.9 L53.9,389.3 C53.2,390.2 52.7,391.3 52.7,392.5 C52.7,395.3 55,397.6 57.8,397.6 C60.2,397.6 62.1,396 62.7,393.8 L87.5,397.1 L87.5,397.5 C87.5,402.3 91.4,406.1 96.1,406.1 C100.9,406.1 104.7,402.2 104.7,397.5 C104.7,397 104.7,396.6 104.6,396.1 L133.7,389.1 C134.8,392.7 138.1,395.3 142,395.3 C146.8,395.3 150.6,391.4 150.6,386.7 C150.6,386.2 150.5,385.6 150.4,385.1 L172,380 C172.7,381.9 174.6,383.3 176.8,383.3 C179,383.3 180.9,381.9 181.6,379.9 L202.1,384.3 C202.1,384.7 202,385 202,385.4 C202,390.2 205.9,394 210.6,394 C214.4,394 217.6,391.5 218.8,388.1 L260.7,398.3 C260.6,398.7 260.6,399.2 260.6,399.7 C260.6,404.5 264.5,408.3 269.2,408.3 C274,408.3 277.8,404.4 277.8,399.7 C277.8,399.1 277.7,398.6 277.6,398.1 L300.1,391.9 C300.9,393.7 302.7,395 304.8,395 C307.6,395 309.9,392.7 309.9,389.9 C309.9,388.5 309.3,387.3 308.5,386.3 L321.8,368.2 C323,368.8 324.4,369.2 325.8,369.2 C330.6,369.2 334.4,365.3 334.4,360.6 C334.4,356.8 332,353.6 328.6,352.5 L334.9,316.2 L335.7,316.2 C340.5,316.2 344.3,312.3 344.3,307.6 C344.3,302.8 340.4,299 335.7,299 C335.4,299 335,299 334.7,299.1 L326,255.2 C329.6,254.2 332.3,250.9 332.3,246.9 C332.3,242.1 328.4,238.3 323.7,238.3 C322.8,238.3 321.9,238.4 321.1,238.7 L306.3,202.5 C309.1,201.1 311.1,198.2 311.1,194.8 C311.1,190.7 308.3,187.3 304.5,186.4 L310.1,149.2 L310.7,149.2 C315.5,149.2 319.3,145.3 319.3,140.6 C319.3,135.8 315.4,132 310.7,132 L309.9,132 L303,91.9 C306.7,90.9 309.5,87.6 309.5,83.6 C309.5,78.8 305.6,75 300.9,75 C300.3,75 299.7,75.1 299.1,75.2 L291,48.8 C294.2,47.5 296.4,44.4 296.4,40.8 C296.4,36 292.5,32.2 287.8,32.2 C286.4,32.2 285.1,32.5 284,33.1 L272.6,14 C273.5,13.1 274.1,11.8 274.1,10.4 C274.1,7.6 271.8,5.3 269,5.3 C267,5.3 265.2,6.5 264.4,8.2 L250.7,5 C250.5,2.3 248.3,0.2 245.6,0.2 C242.8,0.2 240.5,2.5 240.5,5.3 C240.5,6.9 241.3,8.3 242.4,9.3 L238.5,20.7 C238.2,20.6 237.8,20.6 237.5,20.6 C234.7,20.6 232.4,22.9 232.4,25.7 C232.4,28.5 234.7,30.8 237.5,30.8 L240.2,53.3 C236.3,54.1 233.3,57.6 233.3,61.7 C233.3,66 236.4,69.5 240.4,70.2 L238.2,94.5 C235.5,94.6 233.3,96.9 233.3,99.6 C233.3,101.7 234.6,103.5 236.4,104.3 L229.6,129.2 C229.1,129.1 228.6,129 228,129 C223.2,129 219.4,132.9 219.4,137.6 C219.4,139.7 220.2,141.7 221.5,143.2 L198,166.6 C197.1,165.9 196.1,165.5 194.9,165.5 C192.2,165.5 190.1,167.5 189.8,170.1 L169.8,170.9 C169.5,168.3 167.4,166.4 164.7,166.4 C163.5,166.4 162.5,166.8 161.6,167.4 L148.3,152.9 C149.7,151.4 150.6,149.3 150.6,147 C150.6,142.2 146.7,138.4 142,138.4 C140.8,138.4 139.7,138.6 138.7,139.1 L128,118.5 C129.3,117.6 130.2,116 130.2,114.3 C130.2,111.5 127.9,109.2 125.1,109.2 L124.8,109.2 L118.8,77.2 C122.5,76.2 125.2,72.9 125.2,68.9 C125.2,64.8 122.3,61.3 118.4,60.5 L122.1,32.1 C124.7,31.9 126.8,29.7 126.8,27 C126.8,24.2 124.5,21.9 121.7,21.9 L121.2,21.9 L117.7,10.6 C119.1,9.7 120,8.1 120,6.3 C120,3.5 117.7,1.2 114.9,1.2 C112.3,1.2 110.2,3.1 109.8,5.6 L99.9,6.6 C99.1,4.8 97.3,3.5 95.2,3.5 C92.4,3.5 90.1,5.8 90.1,8.6 C90.1,9.6 90.4,10.5 90.9,11.3 L81.8,22.8 C80.6,22.2 79.3,21.9 77.9,21.9 C73.1,21.9 69.3,25.8 69.3,30.5 C69.3,33.6 71,36.4 73.5,37.9 L64.3,64.1 C63.8,64 63.3,64 62.8,64 C58,64 54.2,67.9 54.2,72.6 C54.2,76.4 56.7,79.6 60.1,80.8 L53.3,126.5 L52.7,126.5 C47.9,126.5 44.1,130.4 44.1,135.1 C44.1,139.8 47.9,143.6 52.5,143.7 L54.9,185 C50.7,185.6 47.5,189.2 47.5,193.5 C47.5,196.8 49.4,199.7 52.2,201.2 L35.4,241.7 C34.6,241.4 33.7,241.3 32.8,241.3 C28,241.3 24.2,245.2 24.2,249.9 C24.2,253.9 27,257.3 30.7,258.3 L23.5,300.8 L22.8,300.8 C18,300.8 14.2,304.7 14.2,309.4 C13.9,314 17.7,317.9 22.5,317.9 Z M24.1,317.7 C28.1,316.9 31.1,313.4 31.1,309.2 L31.1,308.4 L49.6,305.1 C50.1,307.4 51.5,309.3 53.4,310.5 L31.9,352.9 C30.9,352.5 29.8,352.2 28.6,352.2 L27.9,352.2 L24.1,317.7 Z M69.7,67.6 L95.9,49.3 C96.4,49.9 97.1,50.3 97.8,50.6 L88.8,89.2 C88.4,89.1 88,89.1 87.5,89.1 C85.3,89.1 83.3,89.9 81.8,91.3 L68.7,78.6 C70.2,77 71.2,74.9 71.2,72.6 C71.2,70.7 70.6,69 69.7,67.6 Z M107.9,68.9 C107.9,71 108.7,73 109.9,74.5 L93.1,91.2 C92.2,90.5 91.2,89.9 90.1,89.5 L99.1,50.9 L99.6,50.9 C100.5,50.9 101.3,50.7 102,50.3 L110.9,62.4 C109.1,64 107.9,66.3 107.9,68.9 Z M121.3,117.8 L101.1,142.2 C99.7,141.2 98,140.6 96.2,140.6 L95.3,140.6 L89.6,106 C92,105.4 94,103.9 95.1,101.8 L120.2,112.9 C120.1,113.4 120,113.8 120,114.3 C120,115.7 120.5,116.9 121.3,117.8 Z M133.6,148.2 C134,151.3 136.1,153.9 139,155.1 L131.3,180.8 C130.2,180.5 129,180.4 127.9,180.4 C125.1,180.4 122.4,181.2 120.2,182.6 L101.4,156.1 C103.3,154.6 104.6,152.4 104.8,149.8 L133.6,148.2 Z M243.4,99.6 C243.4,99.4 243.4,99.2 243.3,99 L266,92.9 C267.1,95.9 269.7,98.1 272.9,98.5 L270.8,134.3 C269.2,134.3 267.7,134.8 266.4,135.6 L241.9,103.2 C242.9,102.3 243.4,101 243.4,99.6 Z M247.4,55.1 L255.8,43.5 C256.5,43.9 257.3,44.1 258.2,44.1 C258.5,44.1 258.8,44.1 259.1,44 L271,81.9 C270,82.3 269,82.9 268.3,83.7 L248.9,66.6 C249.9,65.2 250.5,63.5 250.5,61.6 C250.4,59 249.2,56.7 247.4,55.1 Z M279.3,40.9 C279.4,44.5 281.7,47.6 284.9,48.8 L275.7,81.6 C275.2,81.5 274.6,81.4 274.1,81.4 C273.4,81.4 272.8,81.5 272.2,81.6 L260.3,43.7 C261.8,43 262.8,41.7 263.2,40 L279.3,40.9 Z M299.5,202.7 L291.2,229.5 C290.6,229.4 290,229.3 289.3,229.3 L288.5,229.3 L280.8,184.8 C281.7,184.5 282.6,183.9 283.2,183.2 L295.1,190.6 C294.5,191.8 294.1,193.1 294.1,194.6 C294.1,198.3 296.4,201.4 299.5,202.7 Z M319,253.9 L301.8,283.6 C299.8,282.6 297.6,282 295.2,282 L294.4,282 L290.9,246.4 C294,245.8 296.5,243.6 297.5,240.7 L315.5,245.3 C315.4,245.8 315.4,246.3 315.4,246.8 C315.3,249.7 316.8,252.3 319,253.9 Z M328.7,312.2 C319.1,319.6 301.5,333 291.9,340.4 C290.8,339.2 289.4,338.3 287.8,337.9 L293.2,310.4 C293.9,310.5 294.6,310.6 295.3,310.6 C301.6,310.6 307,306.5 308.9,300.8 L327.5,306 C327.4,306.5 327.3,307.1 327.3,307.6 C327.3,309.2 327.8,310.8 328.7,312.2 Z M269.3,391.1 C267.6,391.1 266,391.6 264.7,392.5 L248.3,370.8 C250.1,369.2 251.2,366.9 251.2,364.4 C251.2,363.4 251,362.5 250.7,361.7 L277.8,350.1 C278.7,352 280.4,353.5 282.3,354.2 L271.1,391.4 C270.5,391.2 269.9,391.1 269.3,391.1 Z M147.4,380 C145.9,378.9 144.1,378.2 142.1,378.2 C140.4,378.2 138.8,378.7 137.4,379.6 L128.4,368.4 C130,366.8 130.9,364.7 130.9,362.3 L130.9,361.7 L167,356.4 C167.2,357.1 167.5,357.7 167.9,358.2 L147.4,380 Z M96.3,389 C94.8,389 93.4,389.4 92.2,390 L76.4,365.6 C78.1,364.3 79.4,362.3 79.7,360 L113.7,362.1 L113.7,362.4 C113.7,364.9 114.8,367.2 116.5,368.7 L100.7,390.3 C99.5,389.5 97.9,389 96.3,389 Z M57.9,387.3 C56.8,387.3 55.8,387.7 54.9,388.3 L34.7,366.9 C36.1,365.4 37.1,363.4 37.1,361.2 L62.6,359.9 C63,362.7 64.7,365.1 67.1,366.4 L59,387.5 C58.7,387.4 58.3,387.3 57.9,387.3 Z M60.4,138.3 L87.7,147.3 C87.5,147.9 87.5,148.6 87.5,149.3 C87.5,152.4 89.2,155.1 91.6,156.7 L82.1,176.6 C81.6,176.4 81.1,176.3 80.5,176.3 C79.8,176.3 79.1,176.5 78.5,176.7 L57.5,142 C58.8,141 59.8,139.8 60.4,138.3 Z M192.4,205.8 C191.3,206.9 190.5,208.3 190.1,209.8 L169.9,206.4 L169.9,206.2 C169.9,203.6 168,201.5 165.5,201.1 L165.5,176.6 C166.2,176.5 166.9,176.3 167.5,175.9 L192.4,205.8 Z M199.9,172.1 L212.8,173.8 L212.8,174.2 C212.8,177.1 214.2,179.6 216.4,181.2 L202.4,204.3 C201.2,203.7 199.9,203.4 198.5,203.4 L198.5,203.4 L196.2,175.8 C197.9,175.3 199.4,173.9 199.9,172.1 Z M218.3,342.8 C220.2,340.4 221.3,337.4 221.3,334.1 C221.3,333.6 221.3,333 221.2,332.5 L250.6,327.7 C251,329.1 252,330.2 253.2,330.8 L244.6,356.1 C243.9,355.9 243.2,355.8 242.5,355.8 C240.1,355.8 238,356.8 236.4,358.3 L218.3,342.8 Z M79.8,358.6 C79.8,356.8 79.2,355.2 78.3,353.9 L98.5,338.6 C99.4,339.5 100.7,340.1 102.1,340.1 C103,340.1 103.8,339.9 104.6,339.5 L116.7,355.9 C115.3,357.1 114.3,358.8 113.9,360.7 L79.8,358.6 Z M96.2,301.4 C96.7,307.4 100.9,312.3 106.4,313.9 L102.6,329.8 C102.4,329.8 102.3,329.7 102.1,329.7 C100.6,329.7 99.3,330.3 98.4,331.3 L65.4,307.5 C66.1,306.2 66.5,304.8 66.5,303.3 L66.5,303.2 L96.2,301.4 Z M74.2,266.1 L111.9,255.9 C112.8,258.5 115,260.5 117.6,261.3 L112.6,286.1 C111.9,286 111.2,285.9 110.4,285.9 C106.2,285.9 102.5,287.7 99.9,290.5 L73.5,269.4 C74,268.6 74.2,267.7 74.2,266.8 L74.2,266.1 Z M90.5,224.4 L116.9,204 C119,206.4 121.9,208.2 125.2,208.8 L120.4,244.5 L119.9,244.5 C116.8,244.5 114.1,246.1 112.6,248.6 L92,238 C92.6,236.4 93,234.6 93,232.7 C93.1,229.5 92.1,226.7 90.5,224.4 Z M221.3,182.8 C223.4,182.8 225.3,182.1 226.8,180.8 L239.1,193.5 C236.7,196 235.3,199.4 235.3,203.2 C235.3,203.8 235.4,204.4 235.4,205 L206.8,209.7 C206.3,207.7 205.1,206 203.5,204.8 L217.5,181.7 C218.6,182.5 219.9,182.8 221.3,182.8 Z M104,330.1 L107.8,314.2 C108.7,314.4 109.5,314.5 110.5,314.5 C115.6,314.5 120,311.9 122.6,307.9 L148.5,322.7 C148,323.8 147.7,325 147.7,326.4 L147.7,327 C136.3,328.8 116.4,332 107.2,333.5 C106.6,331.9 105.4,330.6 104,330.1 Z M192.7,218.4 C194.2,219.7 196.2,220.6 198.4,220.6 C199.9,220.6 201.4,220.2 202.6,219.5 L215.5,238.5 C212.5,240.7 210.5,244.1 209.9,247.9 L173.3,244.5 L173.3,244.4 C173.3,242.3 172.5,240.4 171.3,238.9 L192.7,218.4 Z M242.2,215.5 L230.4,237 C228.5,236.1 226.4,235.5 224.1,235.5 C221.4,235.5 218.8,236.3 216.7,237.6 L203.8,218.6 C205.8,217 207,214.6 207,211.9 L207,211.2 L235.6,206.5 C236.5,210.3 238.9,213.5 242.2,215.5 Z M254.6,266.7 L238,292.6 C236.8,291.9 235.4,291.6 233.9,291.6 C233.6,291.6 233.3,291.6 232.9,291.7 L227.5,263.8 C231.8,262.7 235.4,259.7 237.2,255.7 L252.9,261.8 C252.8,262.1 252.8,262.5 252.8,262.8 C252.7,264.3 253.5,265.7 254.6,266.7 Z M123.1,293.4 L143.6,281.2 C144.5,282.4 146,283.1 147.6,283.1 L147.8,283.1 C150,295 152.6,309.1 154.1,317.8 C152,318.3 150.2,319.6 149.1,321.3 L123.2,306.5 C124.2,304.6 124.8,302.4 124.8,300 C124.7,297.7 124.1,295.4 123.1,293.4 Z M213.5,259.4 L195.7,277.1 C194.2,275.6 192.1,274.7 189.8,274.7 C188.3,274.7 186.9,275.1 185.7,275.7 L169.9,251.2 C171.6,249.9 172.9,248 173.2,245.8 L209.8,249.2 L209.8,249.8 C209.8,253.5 211.2,256.9 213.5,259.4 Z M164.8,253 C166.2,253 167.6,252.6 168.8,252 L184.6,276.5 C183,277.7 181.8,279.5 181.4,281.6 L152.7,278 C152.7,276.3 151.8,274.8 150.5,273.8 L161.4,252.3 C162.4,252.7 163.6,253 164.8,253 Z M156.2,317.6 L155.5,317.6 C153.8,307.7 150.8,291.7 149.2,282.9 C150.8,282.4 152.1,281 152.5,279.4 L181.2,283 L181.2,283.4 C181.2,285.9 182.3,288.2 184,289.7 L161,319.1 C159.5,318.1 157.9,317.6 156.2,317.6 Z M196.6,278.1 L214.4,260.4 C216.9,262.7 220.3,264.2 224,264.2 C224.7,264.2 225.4,264.1 226,264 L231.4,291.9 C229,292.6 227,294.2 226,296.5 L198,285.7 C198.2,285 198.3,284.2 198.3,283.5 C198.4,281.4 197.7,279.6 196.6,278.1 Z M160.2,251.6 L149.3,273.2 C148.8,273 148.2,272.9 147.6,272.9 C146.3,272.9 145.2,273.4 144.3,274.1 L126.8,258.3 C128,256.8 128.7,255 128.7,253 L128.7,252.2 L156.6,246.7 C157.1,248.7 158.4,250.5 160.2,251.6 Z M120,261.6 C122.2,261.6 124.3,260.7 125.8,259.3 L143.3,275.1 C142.7,275.9 142.4,276.9 142.4,278 C142.4,278.7 142.5,279.4 142.8,280 L122.4,292.2 C120.5,289.3 117.5,287.1 114,286.3 L119,261.5 C119.3,261.6 119.6,261.6 120,261.6 Z M162,319.9 L185,290.5 C186.4,291.4 188,291.9 189.8,291.9 C190.5,291.9 191.2,291.8 191.9,291.6 L201.8,320.7 C197.4,322.5 194,326.4 193,331.1 L164.7,326.7 L164.7,326.1 C164.8,323.7 163.7,321.5 162,319.9 Z M207,319.8 C205.6,319.8 204.3,320 203.1,320.4 L193.2,291.3 C195.2,290.4 196.7,288.9 197.6,286.9 L225.6,297.7 C225.4,298.5 225.2,299.3 225.2,300.1 C225.2,302.6 226.3,304.8 228,306.4 L215.3,322.4 C213,320.8 210.1,319.8 207,319.8 Z M216.4,323.3 L229.1,307.3 C230.5,308.2 232.1,308.8 233.9,308.8 C235.7,308.8 237.4,308.2 238.8,307.2 L251.7,322.8 C250.9,323.7 250.3,324.9 250.3,326.3 L250.3,326.4 L220.9,331.2 C220.4,328 218.7,325.3 216.4,323.3 Z M255.5,321.1 C254.5,321.1 253.6,321.4 252.8,321.9 L239.9,306.3 C241.5,304.8 242.4,302.6 242.5,300.3 L281,297.8 C281.3,300.2 282.1,302.4 283.4,304.3 L259.1,322.6 C258.3,321.7 257,321.1 255.5,321.1 Z M280.9,296.5 L242.4,299 C242.1,296.7 240.9,294.7 239.1,293.4 L255.8,267.5 C256.4,267.8 257.1,268 257.9,268 C259.2,268 260.3,267.5 261.2,266.8 L284.1,287.4 C282.1,289.9 280.9,293 280.9,296.4 C280.9,296.3 280.9,296.4 280.9,296.5 Z M261.4,259 C260.5,258.1 259.2,257.6 257.8,257.6 C255.8,257.6 254.1,258.7 253.2,260.4 L237.5,254.3 C238,252.9 238.2,251.4 238.2,249.8 C238.2,249.2 238.1,248.5 238.1,247.9 L280.8,240 C281,240.9 281.4,241.8 281.9,242.6 L261.4,259 Z M238,246.6 C237.1,242.8 234.8,239.7 231.6,237.7 L243.4,216.2 C245.3,217.1 247.4,217.6 249.6,217.6 C253.6,217.6 257.2,215.9 259.8,213.3 L282.4,232.9 C281.3,234.3 280.7,236.1 280.7,238.1 L280.7,238.9 L238,246.6 Z M191.7,217.4 L170.4,237.9 C169,236.7 167.3,236 165.3,235.8 L165.4,211.3 C167.4,211 169,209.6 169.6,207.8 L189.8,211.2 L189.8,211.9 C189.8,214 190.5,215.9 191.7,217.4 Z M164.1,211.3 L164,235.8 C162.6,235.9 161.3,236.4 160.2,237.1 L136.9,205.7 C138.9,204.1 140.4,202 141.2,199.6 L159.7,205.4 C159.7,205.7 159.6,206 159.6,206.3 C159.6,208.8 161.6,211 164.1,211.3 Z M159,238 C157.2,239.6 156.1,241.9 156.1,244.4 C156.1,244.7 156.1,245 156.2,245.3 L128.3,250.8 C127.5,247.7 125,245.3 121.8,244.6 L126.6,208.9 C127,208.9 127.4,209 127.8,209 C130.7,209 133.5,208.1 135.7,206.6 L159,238 Z M64.6,308.7 L97.6,332.5 C97.2,333.2 97,334 97,334.9 C97,335.8 97.3,336.7 97.7,337.4 L77.4,352.8 C75.8,351.2 73.6,350.2 71.2,350.2 C70.7,350.2 70.3,350.2 69.8,350.3 L60.4,311.6 C62.1,311 63.6,310 64.6,308.7 Z M122.4,353.7 C120.7,353.7 119.2,354.2 117.9,355 L105.8,338.6 C106.8,337.7 107.4,336.4 107.4,334.9 L107.4,334.8 C120.2,332.7 137.7,329.9 147.9,328.3 C148.2,329.8 148.9,331.1 149.9,332.1 L127.8,355.6 C126.3,354.4 124.4,353.7 122.4,353.7 Z M128.7,356.5 L150.8,333 C152.3,334.2 154.1,334.9 156.2,334.9 C157.5,334.9 158.7,334.6 159.7,334.1 L169,350.9 C167.7,351.8 166.9,353.3 166.9,355 C166.9,355 166.9,355 166.9,355.1 L130.8,360.4 C130.4,358.9 129.7,357.6 128.7,356.5 Z M172,349.8 C171.3,349.8 170.7,349.9 170.2,350.2 L161,333.4 C162.8,332.2 164.1,330.4 164.6,328.2 L192.9,332.6 C192.8,333.1 192.8,333.6 192.8,334.1 C192.8,336.5 193.4,338.8 194.5,340.8 L176.1,351.8 C175.1,350.6 173.6,349.8 172,349.8 Z M245.9,356.5 L254.5,331.3 C254.8,331.4 255.1,331.4 255.5,331.4 C257.1,331.4 258.4,330.7 259.4,329.6 L278,342 C277.3,343.2 276.9,344.7 276.9,346.2 C276.9,347.1 277,348 277.3,348.8 L250.2,360.5 C249.2,358.7 247.7,357.3 245.9,356.5 Z M285.5,337.5 C282.8,337.5 280.3,338.8 278.7,340.8 L260.1,328.4 C260.4,327.7 260.6,327 260.6,326.2 C260.6,325.3 260.3,324.4 259.9,323.7 L284.2,305.4 C286.1,307.7 288.7,309.3 291.7,310 L286.3,337.5 C286.1,337.6 285.8,337.5 285.5,337.5 Z M285.1,286.2 L262.2,265.6 C262.8,264.8 263.1,263.8 263.1,262.7 C263.1,261.7 262.8,260.9 262.4,260.1 L283.1,243.7 C284.7,245.4 286.9,246.5 289.4,246.5 L289.6,246.5 L293.1,282.1 C290,282.6 287.2,284.1 285.1,286.2 Z M283.3,231.7 L260.7,212.1 C262.7,209.7 263.8,206.6 263.8,203.2 C263.8,200.2 262.8,197.4 261.2,195 L275.6,183.6 C276.5,184.5 277.8,185 279.2,185 L279.4,185 L287.1,229.4 C285.7,230 284.4,230.7 283.3,231.7 Z M274.1,180 C274.1,181 274.4,181.8 274.8,182.6 L260.4,194 C258.9,192.3 257.1,190.9 255,190 L268.8,151.2 C269.5,151.4 270.3,151.5 271,151.5 C271.4,151.5 271.8,151.5 272.2,151.4 L277.4,175.2 C275.5,175.9 274.1,177.8 274.1,180 Z M267.5,150.8 L253.7,189.6 C252.4,189.2 251,189 249.6,189 C245.9,189 242.6,190.4 240.1,192.6 L227.8,179.9 C229.1,178.4 230,176.4 230,174.2 C230,172.8 229.6,171.4 229,170.2 L264.2,148.1 C265.1,149.2 266.2,150.2 267.5,150.8 Z M164.1,176.6 L164.1,201.1 C162.3,201.3 160.9,202.4 160.2,204 L141.7,198.2 C142,197 142.2,195.8 142.2,194.6 C142.2,192.1 141.5,189.7 140.4,187.6 L161,174.8 C161.6,175.8 162.8,176.5 164.1,176.6 Z M114.3,190.1 L85.7,182.1 C85.7,181.9 85.8,181.6 85.8,181.4 C85.8,179.6 84.9,178 83.5,177.1 L93,157.2 C94,157.6 95.1,157.8 96.2,157.8 C97.7,157.8 99,157.4 100.3,156.8 L119.1,183.4 C116.8,185.1 115.1,187.5 114.3,190.1 Z M81.1,186.5 C83,186.3 84.6,185.1 85.3,183.5 L113.9,191.5 C113.7,192.5 113.5,193.6 113.5,194.7 C113.5,197.7 114.5,200.6 116.1,202.9 L89.7,223.3 C87.3,220.5 83.9,218.7 80,218.3 L81.1,186.5 Z M78.8,246.9 C84.3,246.9 89.1,243.7 91.5,239.1 L112,249.7 C111.6,250.7 111.3,251.8 111.3,253 C111.3,253.5 111.4,254.1 111.5,254.6 L73.8,264.8 C73.3,263.6 72.3,262.6 71.1,262.1 L75.4,246.6 C76.5,246.7 77.6,246.9 78.8,246.9 Z M69.1,271.9 C70.5,271.9 71.7,271.4 72.6,270.5 L99,291.6 C97.2,294 96.1,296.9 96.1,300 L66.3,301.8 C65.8,298.8 63.6,296.3 60.8,295.2 L68.2,271.8 C68.5,271.8 68.8,271.9 69.1,271.9 Z M57.9,311.9 C58.3,311.9 58.7,311.9 59.1,311.8 L68.5,350.5 C65.1,351.6 62.7,354.7 62.6,358.4 L37.1,359.7 C36.8,357.1 35.2,354.8 33.1,353.5 L54.6,311.2 C55.6,311.7 56.7,311.9 57.9,311.9 Z M176.7,353 L195.1,342 C197.7,345.8 202,348.4 207,348.4 L207.3,348.4 L209.3,377 C207.3,377.3 205.6,378.3 204.3,379.7 L176.3,357.7 C176.7,356.9 177,356.1 177,355.1 C177.2,354.3 177,353.6 176.7,353 Z M210.8,376.8 L208.8,348.3 C212.2,347.9 215.2,346.3 217.5,343.9 L235.6,359.4 C234.6,360.8 234,362.6 234,364.4 C234,365.9 234.4,367.3 235.1,368.6 L217.6,380.2 C215.9,378.1 213.5,376.9 210.8,376.8 Z M282,175.6 C281.2,175.1 280.3,174.8 279.3,174.8 L278.9,174.8 L273.7,151 C277.1,149.9 279.6,146.7 279.7,143 L302.4,141.7 C302.7,143.8 303.8,145.7 305.4,147 L282,175.6 Z M302.3,140.4 L279.7,141.7 C279.2,137.9 276.2,134.9 272.4,134.4 L274.5,98.6 C276.1,98.6 277.6,98.1 278.9,97.3 L305.9,133.6 C303.7,135.2 302.3,137.6 302.3,140.4 Z M263.4,146.9 L228.2,169 C227.1,167.5 225.4,166.3 223.5,165.8 L227,146.3 L227.8,146.3 C232,146.3 235.5,143.3 236.2,139.4 L262.4,142.5 L262.4,142.8 C262.5,144.3 262.8,145.7 263.4,146.9 Z M225.7,146.1 L222.2,165.6 L221.4,165.6 C217.3,165.6 213.8,168.5 213,172.4 L200.2,170.7 C200.2,169.5 199.8,168.5 199.1,167.6 L222.4,144.3 C223.3,145.1 224.4,145.7 225.7,146.1 Z M194.7,175.8 L197,203.4 C195.7,203.6 194.5,204.1 193.4,204.9 L168.6,175 C169.3,174.3 169.7,173.4 169.9,172.3 L189.9,171.5 C190.3,173.9 192.3,175.7 194.7,175.8 Z M160.1,173.7 L139.6,186.5 C137.9,184.1 135.5,182.2 132.6,181.2 L140.3,155.5 C140.9,155.6 141.5,155.7 142.1,155.7 C144.1,155.7 145.9,155 147.4,153.9 L160.7,168.5 C160,169.4 159.6,170.4 159.6,171.6 C159.6,172.3 159.8,173 160.1,173.7 Z M82.1,104.4 C83.6,105.6 85.4,106.3 87.5,106.3 L88.2,106.3 L93.9,141 C91.3,141.7 89.2,143.5 88.2,146 L60.9,137 C61.1,136.4 61.1,135.7 61.1,135 C61.1,132.8 60.2,130.8 58.9,129.2 L82.1,104.4 Z M56.3,142.7 L77.3,177.5 C76.1,178.4 75.4,179.9 75.4,181.5 C75.4,182.1 75.5,182.6 75.7,183.1 L63.3,189.2 C61.8,186.7 59.2,185 56.1,185 L53.7,143.7 C54.6,143.4 55.5,143.1 56.3,142.7 Z M64.5,193.4 C64.5,192.3 64.3,191.2 63.9,190.3 L76.3,184.3 C77.1,185.4 78.3,186.3 79.7,186.5 L78.6,218.3 C76.3,218.3 74.1,218.9 72.2,219.9 L60.8,200.5 C63,198.9 64.5,196.4 64.5,193.4 Z M74.1,246.1 L69.8,261.7 C69.6,261.7 69.3,261.6 69.1,261.6 C67.3,261.6 65.7,262.6 64.8,264 L40.6,252.8 C40.9,251.9 41.1,250.9 41.1,249.8 C41.1,248.9 41,248.1 40.7,247.3 L65.4,237.7 C67,241.6 70.1,244.7 74.1,246.1 Z M40,254.1 L64.2,265.3 C64.1,265.8 64,266.3 64,266.8 C64,268.9 65.2,270.6 67,271.4 L59.6,294.9 C59.1,294.8 58.6,294.7 58,294.7 C57,294.7 56,294.9 55.1,295.2 L36.9,257.2 C38.1,256.5 39.2,255.4 40,254.1 Z M63.1,392.5 C63.1,390.6 62,388.9 60.4,388 L68.5,366.9 C69.4,367.2 70.3,367.3 71.2,367.3 C72.7,367.3 74.1,366.9 75.3,366.3 L91.1,390.7 C89.5,391.9 88.3,393.7 87.9,395.7 L63.1,392.5 Z M104.5,394.9 C104,393.4 103.1,392.1 101.9,391.1 L117.6,369.5 C119,370.4 120.6,370.9 122.3,370.9 C124.2,370.9 125.9,370.3 127.3,369.3 L136.2,380.5 C134.5,382.1 133.4,384.3 133.4,386.9 C133.4,387.3 133.4,387.6 133.5,388 L104.5,394.9 Z M150.2,383.9 C149.8,382.8 149.2,381.8 148.4,380.9 L169,359.1 C169.8,359.7 170.9,360.1 172,360.1 L172.4,360.1 L175.2,373.4 C173.2,374.1 171.8,376 171.8,378.2 C171.8,378.4 171.8,378.5 171.9,378.7 L150.2,383.9 Z M181.9,378.6 L181.9,378.2 C181.9,375.4 179.6,373.1 176.8,373.1 L176.5,373.1 L173.7,359.8 C174.4,359.6 175,359.2 175.6,358.7 L203.5,380.7 C203,381.4 202.7,382.2 202.4,383 L181.9,378.6 Z M219.2,386.8 C219.3,386.4 219.3,385.9 219.3,385.4 C219.3,383.9 218.9,382.5 218.2,381.2 L235.7,369.6 C237.3,371.6 239.7,372.9 242.5,372.9 C244.2,372.9 245.8,372.4 247.1,371.5 L263.5,393.2 C262.4,394.2 261.5,395.5 261.1,396.9 L219.2,386.8 Z M277.4,396.8 C276.6,394.5 274.7,392.6 272.5,391.7 L283.7,354.5 C284.3,354.6 284.9,354.7 285.5,354.7 C286.5,354.7 287.5,354.5 288.4,354.2 L302.3,385.4 C300.8,386.3 299.9,387.9 299.9,389.8 C299.9,390.1 299.9,390.3 300,390.5 L277.4,396.8 Z M307.5,385.4 C306.7,384.9 305.9,384.7 304.9,384.7 C304.4,384.7 303.9,384.8 303.5,384.9 L289.6,353.7 C291.3,352.8 292.6,351.3 293.4,349.5 L317.7,358.2 C317.5,358.9 317.4,359.7 317.4,360.4 C317.4,363.2 318.7,365.7 320.8,367.3 L307.5,385.4 Z M327.5,352 C327,351.9 326.5,351.9 326,351.9 C322.5,351.9 319.5,354 318.2,357 L293.9,348.3 C294.1,347.6 294.2,346.9 294.2,346.2 C294.2,344.5 293.7,342.9 292.8,341.5 C302.5,334.1 320,320.7 329.6,313.3 C330.7,314.5 332.2,315.4 333.8,315.8 L327.5,352 Z M333.6,299.2 C330.9,300 328.8,302 327.9,304.5 L309.2,299.3 C309.4,298.3 309.6,297.2 309.6,296.2 C309.6,291.2 307,286.8 303.1,284.2 L320.3,254.5 C321.4,255 322.7,255.3 324,255.3 C324.3,255.3 324.7,255.3 325,255.2 L333.6,299.2 Z M320.1,239.1 C318.1,240.1 316.6,241.8 315.8,244 L297.8,239.4 C297.9,239 297.9,238.5 297.9,238 C297.9,234.4 295.7,231.3 292.5,230 L300.8,203.2 C301.4,203.3 302,203.4 302.7,203.4 C303.6,203.4 304.4,203.3 305.3,203 L320.1,239.1 Z M303.3,186.1 L302.7,186.1 C299.9,186.1 297.4,187.5 295.8,189.6 L283.9,182.2 C284.2,181.6 284.4,180.8 284.4,180.1 C284.4,178.7 283.9,177.5 283,176.6 L306.4,148 C307.2,148.5 308,148.8 308.9,149 L303.3,186.1 Z M308.7,132.2 C308.1,132.4 307.5,132.6 306.9,132.9 L279.8,96.5 C281.6,94.9 282.7,92.6 282.7,90 C282.7,89.5 282.7,89.1 282.6,88.7 L292.8,86.2 C293.9,89.6 297.2,92.1 301,92.1 L301.8,92.1 L308.7,132.2 Z M297.8,75.5 C294.6,76.8 292.3,79.9 292.3,83.5 C292.3,84 292.3,84.4 292.4,84.8 L282.2,87.3 C281.4,84.8 279.5,82.8 277,81.9 L286.2,49.1 C286.7,49.2 287.3,49.3 287.8,49.3 C288.4,49.3 289,49.2 289.6,49.1 L297.8,75.5 Z M279.4,39.5 L263.3,38.6 C263.2,36.8 262.1,35.3 260.6,34.5 L267.8,15.3 C268.2,15.4 268.6,15.4 268.9,15.4 C269.8,15.4 270.7,15.1 271.5,14.7 L282.9,33.6 C281,35 279.7,37.1 279.4,39.5 Z M266.6,14.8 L259.4,34 C259,33.9 258.7,33.9 258.3,33.9 C257.9,33.9 257.5,34 257.2,34 L248.1,9.7 C249.4,9 250.4,7.8 250.7,6.3 L264.1,9.5 C264.1,9.8 264,10.1 264,10.4 C263.9,12.3 265,13.9 266.6,14.8 Z M243.5,9.9 C244.1,10.2 244.8,10.3 245.5,10.3 C245.9,10.3 246.3,10.2 246.6,10.2 L255.7,34.5 C255.1,34.8 254.7,35.2 254.3,35.7 L242,27.7 C242.3,27 242.5,26.3 242.5,25.5 C242.5,23.5 241.3,21.8 239.7,20.9 L243.5,9.9 Z M238.7,30.5 C239.7,30.2 240.6,29.7 241.3,28.9 L253.6,36.9 C253.3,37.6 253.1,38.3 253.1,39.1 C253.1,40.6 253.7,41.9 254.7,42.8 L246.3,54.4 C245,53.6 243.5,53.1 241.8,53.1 L241.5,53.1 L238.7,30.5 Z M241.8,70.3 C244.2,70.3 246.4,69.3 247.9,67.7 L267.3,84.8 C266.2,86.2 265.6,88 265.6,90 C265.6,90.5 265.7,91 265.7,91.5 L243.1,97.6 C242.5,96.1 241.1,95 239.5,94.6 L241.8,70.3 C241.7,70.3 241.7,70.3 241.8,70.3 Z M237.6,104.7 C237.8,104.7 238,104.8 238.3,104.8 C239.2,104.8 240.1,104.5 240.8,104.1 L265.3,136.5 C263.9,137.7 263,139.4 262.6,141.2 L236.4,138.1 L236.4,137.8 C236.4,134.1 234,130.9 230.7,129.7 L237.6,104.7 Z M137.5,139.8 C135.1,141.3 133.5,143.9 133.5,146.9 L104.7,148.4 C104.5,146.3 103.6,144.5 102.1,143.1 L122.3,118.7 C123.1,119.2 124,119.5 125,119.5 C125.6,119.5 126.2,119.4 126.7,119.2 L137.5,139.8 Z M123.5,109.5 C122.4,109.9 121.4,110.6 120.8,111.7 L95.7,100.6 C96,99.7 96.2,98.8 96.2,97.8 C96.2,95.7 95.4,93.7 94.2,92.2 L111,75.5 C112.5,76.8 114.5,77.6 116.6,77.6 L117.5,77.6 L123.5,109.5 Z M116.6,60.3 C114.9,60.3 113.4,60.8 112.1,61.6 L103.2,49.6 C104.2,48.7 104.8,47.4 104.8,45.9 C104.8,44.9 104.5,43.9 104,43.1 L118.3,30.8 C119,31.4 119.8,31.9 120.8,32.1 L117.1,60.4 C116.9,60.3 116.7,60.3 116.6,60.3 Z M119.9,22.1 C118,22.8 116.6,24.7 116.6,26.9 C116.6,27.9 116.9,28.8 117.4,29.6 L103,42 C102.7,41.8 102.4,41.5 102.1,41.4 L113.7,11.3 C114.1,11.4 114.5,11.4 114.9,11.4 C115.5,11.4 116,11.3 116.5,11.1 L119.9,22.1 Z M109.7,6.9 C109.9,8.6 110.9,10 112.3,10.8 L100.7,40.9 C100.3,40.8 99.9,40.8 99.5,40.8 L99.5,40.8 L95.8,13.7 C98.3,13.3 100.1,11.2 100.1,8.6 C100.1,8.4 100.1,8.1 100,7.9 L109.7,6.9 Z M91.7,12.3 C92.5,13 93.5,13.5 94.6,13.6 L98.3,40.9 C97.4,41.2 96.5,41.7 95.9,42.4 L85.2,34.8 C86,33.5 86.4,32 86.4,30.4 C86.4,27.5 85,25 82.9,23.5 L91.7,12.3 Z M74.5,38.4 C75.5,38.8 76.6,39 77.7,39 C80.4,39 82.7,37.8 84.3,35.9 L95,43.5 C94.6,44.2 94.4,45 94.4,45.9 C94.4,46.7 94.6,47.5 95,48.2 L68.7,66.5 C67.8,65.5 66.6,64.8 65.3,64.3 L74.5,38.4 Z M61.2,81 C61.6,81.1 62.1,81.1 62.6,81.1 C64.5,81.1 66.2,80.5 67.7,79.4 L80.9,92.2 C79.7,93.7 78.9,95.6 78.9,97.7 C78.9,99.9 79.8,101.9 81.1,103.5 L57.8,128.3 C56.8,127.5 55.6,126.9 54.4,126.6 L61.2,81 Z M53.2,201.6 C54,201.9 54.9,202 55.8,202 C57.1,202 58.4,201.7 59.5,201.1 L70.9,220.5 C67,223.1 64.4,227.5 64.4,232.5 C64.4,233.8 64.6,235.1 64.9,236.3 L40.1,246 C39.3,244.3 37.9,243 36.3,242.1 L53.2,201.6 Z M31.8,258.4 L32.5,258.4 C33.6,258.4 34.6,258.2 35.6,257.8 L53.7,295.7 C51.1,297.2 49.3,300 49.3,303.2 L49.3,303.7 L30.8,307 C30,304 27.6,301.6 24.6,300.8 L31.8,258.4 Z"/>
  </g>
</svg>
